{
	"asset":{
		"generator":"Khronos glTF Blender I/O v4.0.44",
		"version":"2.0"
	},
	"scene":0,
	"scenes":[
		{
			"name":"Scene",
			"nodes":[
				3,
				7,
				11,
				15,
				19
			]
		}
	],
	"nodes":[
		{
			"mesh":0,
			"name":"dog_statue.002"
		},
		{
			"children":[
				0
			],
			"name":"dog_statue.003",
			"rotation":[
				0.6762391924858093,
				3.3950777833524626e-06,
				-0.0033902244176715612,
				0.7366743683815002
			],
			"scale":[
				1.0000027418136597,
				1.0000041723251343,
				1.000003695487976
			]
		},
		{
			"children":[
				1
			],
			"name":"Root.001"
		},
		{
			"children":[
				2
			],
			"name":"Sketchfab_model.001",
			"rotation":[
				-0.70710688829422,
				0,
				0,
				0.7071066498756409
			],
			"translation":[
				-8,
				0,
				0
			]
		},
		{
			"mesh":1,
			"name":"dog_statue.005"
		},
		{
			"children":[
				4
			],
			"name":"dog_statue.004",
			"rotation":[
				0.6762391924858093,
				3.3950777833524626e-06,
				-0.0033902244176715612,
				0.7366743683815002
			],
			"scale":[
				1.0000027418136597,
				1.0000041723251343,
				1.000003695487976
			]
		},
		{
			"children":[
				5
			],
			"name":"Root.002"
		},
		{
			"children":[
				6
			],
			"name":"Sketchfab_model.002",
			"rotation":[
				-0.70710688829422,
				0,
				0,
				0.7071066498756409
			],
			"translation":[
				-4,
				0,
				0
			]
		},
		{
			"mesh":2,
			"name":"dog_statue.006"
		},
		{
			"children":[
				8
			],
			"name":"dog_statue.007",
			"rotation":[
				0.6762391924858093,
				3.3950777833524626e-06,
				-0.0033902244176715612,
				0.7366743683815002
			],
			"scale":[
				1.0000027418136597,
				1.0000041723251343,
				1.000003695487976
			]
		},
		{
			"children":[
				9
			],
			"name":"Root.003"
		},
		{
			"children":[
				10
			],
			"name":"Sketchfab_model.003",
			"rotation":[
				-0.70710688829422,
				0,
				0,
				0.7071066498756409
			]
		},
		{
			"mesh":3,
			"name":"dog_statue.009"
		},
		{
			"children":[
				12
			],
			"name":"dog_statue.008",
			"rotation":[
				0.6762391924858093,
				3.3950777833524626e-06,
				-0.0033902244176715612,
				0.7366743683815002
			],
			"scale":[
				1.0000027418136597,
				1.0000041723251343,
				1.000003695487976
			]
		},
		{
			"children":[
				13
			],
			"name":"Root.004"
		},
		{
			"children":[
				14
			],
			"name":"Sketchfab_model.004",
			"rotation":[
				-0.70710688829422,
				0,
				0,
				0.7071066498756409
			],
			"translation":[
				4,
				0,
				0
			]
		},
		{
			"mesh":4,
			"name":"dog_statue.001"
		},
		{
			"children":[
				16
			],
			"name":"dog_statue.010",
			"rotation":[
				0.6762391924858093,
				3.3950777833524626e-06,
				-0.0033902244176715612,
				0.7366743683815002
			],
			"scale":[
				1.0000027418136597,
				1.0000041723251343,
				1.000003695487976
			]
		},
		{
			"children":[
				17
			],
			"name":"Root.005"
		},
		{
			"children":[
				18
			],
			"name":"Sketchfab_model.005",
			"rotation":[
				-0.70710688829422,
				0,
				0,
				0.7071066498756409
			],
			"translation":[
				8,
				0,
				0
			]
		}
	],
	"materials":[
		{
			"doubleSided":true,
			"name":"dog_statue.024",
			"pbrMetallicRoughness":{}
		},
		{
			"doubleSided":true,
			"name":"dog_statue.025",
			"pbrMetallicRoughness":{}
		},
		{
			"doubleSided":true,
			"name":"dog_statue.026",
			"pbrMetallicRoughness":{}
		},
		{
			"doubleSided":true,
			"name":"dog_statue.027",
			"pbrMetallicRoughness":{}
		},
		{
			"doubleSided":true,
			"name":"dog_statue.028",
			"pbrMetallicRoughness":{}
		}
	],
	"meshes":[
		{
			"name":"dog_statue.017",
			"primitives":[
				{
					"attributes":{
						"POSITION":0,
						"NORMAL":1,
						"TEXCOORD_0":2
					},
					"indices":3,
					"material":0
				}
			]
		},
		{
			"name":"dog_statue.018",
			"primitives":[
				{
					"attributes":{
						"POSITION":4,
						"NORMAL":5,
						"TEXCOORD_0":6
					},
					"indices":3,
					"material":1
				}
			]
		},
		{
			"name":"dog_statue.019",
			"primitives":[
				{
					"attributes":{
						"POSITION":7,
						"NORMAL":8,
						"TEXCOORD_0":9
					},
					"indices":3,
					"material":2
				}
			]
		},
		{
			"name":"dog_statue.020",
			"primitives":[
				{
					"attributes":{
						"POSITION":10,
						"NORMAL":11,
						"TEXCOORD_0":12
					},
					"indices":3,
					"material":3
				}
			]
		},
		{
			"name":"dog_statue.021",
			"primitives":[
				{
					"attributes":{
						"POSITION":13,
						"NORMAL":14,
						"TEXCOORD_0":15
					},
					"indices":3,
					"material":4
				}
			]
		}
	],
	"accessors":[
		{
			"bufferView":0,
			"componentType":5126,
			"count":51390,
			"max":[
				1.9910441637039185,
				4.6854448318481445,
				2.2445220947265625
			],
			"min":[
				-1.6341899633407593,
				-0.15489932894706726,
				-1.365729570388794
			],
			"type":"VEC3"
		},
		{
			"bufferView":1,
			"componentType":5126,
			"count":51390,
			"type":"VEC3"
		},
		{
			"bufferView":2,
			"componentType":5126,
			"count":51390,
			"type":"VEC2"
		},
		{
			"bufferView":3,
			"componentType":5123,
			"count":273483,
			"type":"SCALAR"
		},
		{
			"bufferView":4,
			"componentType":5126,
			"count":51390,
			"max":[
				1.9910441637039185,
				4.6854448318481445,
				2.2445220947265625
			],
			"min":[
				-1.6341899633407593,
				-0.15489932894706726,
				-1.365729570388794
			],
			"type":"VEC3"
		},
		{
			"bufferView":5,
			"componentType":5126,
			"count":51390,
			"type":"VEC3"
		},
		{
			"bufferView":6,
			"componentType":5126,
			"count":51390,
			"type":"VEC2"
		},
		{
			"bufferView":7,
			"componentType":5126,
			"count":51390,
			"max":[
				1.9910441637039185,
				4.6854448318481445,
				2.2445220947265625
			],
			"min":[
				-1.6341899633407593,
				-0.15489932894706726,
				-1.365729570388794
			],
			"type":"VEC3"
		},
		{
			"bufferView":8,
			"componentType":5126,
			"count":51390,
			"type":"VEC3"
		},
		{
			"bufferView":9,
			"componentType":5126,
			"count":51390,
			"type":"VEC2"
		},
		{
			"bufferView":10,
			"componentType":5126,
			"count":51390,
			"max":[
				1.9910441637039185,
				4.6854448318481445,
				2.2445220947265625
			],
			"min":[
				-1.6341899633407593,
				-0.15489932894706726,
				-1.365729570388794
			],
			"type":"VEC3"
		},
		{
			"bufferView":11,
			"componentType":5126,
			"count":51390,
			"type":"VEC3"
		},
		{
			"bufferView":12,
			"componentType":5126,
			"count":51390,
			"type":"VEC2"
		},
		{
			"bufferView":13,
			"componentType":5126,
			"count":51390,
			"max":[
				1.9910441637039185,
				4.6854448318481445,
				2.2445220947265625
			],
			"min":[
				-1.6341899633407593,
				-0.15489932894706726,
				-1.365729570388794
			],
			"type":"VEC3"
		},
		{
			"bufferView":14,
			"componentType":5126,
			"count":51390,
			"type":"VEC3"
		},
		{
			"bufferView":15,
			"componentType":5126,
			"count":51390,
			"type":"VEC2"
		}
	],
	"bufferViews":[
		{
			"buffer":0,
			"byteLength":616680,
			"byteOffset":0,
			"target":34962
		},
		{
			"buffer":0,
			"byteLength":616680,
			"byteOffset":616680,
			"target":34962
		},
		{
			"buffer":0,
			"byteLength":411120,
			"byteOffset":1233360,
			"target":34962
		},
		{
			"buffer":0,
			"byteLength":546966,
			"byteOffset":1644480,
			"target":34963
		},
		{
			"buffer":0,
			"byteLength":616680,
			"byteOffset":2191448,
			"target":34962
		},
		{
			"buffer":0,
			"byteLength":616680,
			"byteOffset":2808128,
			"target":34962
		},
		{
			"buffer":0,
			"byteLength":411120,
			"byteOffset":3424808,
			"target":34962
		},
		{
			"buffer":0,
			"byteLength":616680,
			"byteOffset":3835928,
			"target":34962
		},
		{
			"buffer":0,
			"byteLength":616680,
			"byteOffset":4452608,
			"target":34962
		},
		{
			"buffer":0,
			"byteLength":411120,
			"byteOffset":5069288,
			"target":34962
		},
		{
			"buffer":0,
			"byteLength":616680,
			"byteOffset":5480408,
			"target":34962
		},
		{
			"buffer":0,
			"byteLength":616680,
			"byteOffset":6097088,
			"target":34962
		},
		{
			"buffer":0,
			"byteLength":411120,
			"byteOffset":6713768,
			"target":34962
		},
		{
			"buffer":0,
			"byteLength":616680,
			"byteOffset":7124888,
			"target":34962
		},
		{
			"buffer":0,
			"byteLength":616680,
			"byteOffset":7741568,
			"target":34962
		},
		{
			"buffer":0,
			"byteLength":411120,
			"byteOffset":8358248,
			"target":34962
		}
	],
	"buffers":[
		{
			"byteLength":8769368,
			"uri":"Dog.bin"
		}
	]
}
