{
	"asset":{
		"generator":"Khronos glTF Blender I/O v4.0.44",
		"version":"2.0"
	},
	"scene":0,
	"scenes":[
		{
			"name":"Scene",
			"nodes":[
				0,
				1
			]
		}
	],
	"nodes":[
		{
			"mesh":0,
			"name":"mesh_00002",
			"rotation":[
				0.7071068286895752,
				0,
				0,
				0.7071068286895752
			]
		},
		{
			"mesh":1,
			"name":"mesh_00001",
			"rotation":[
				0.7071068286895752,
				0,
				0,
				0.7071068286895752
			]
		}
	],
	"meshes":[
		{
			"name":"mesh_00002",
			"primitives":[
				{
					"attributes":{
						"POSITION":0,
						"NORMAL":1
					},
					"indices":2
				}
			]
		},
		{
			"name":"mesh_00001",
			"primitives":[
				{
					"attributes":{
						"POSITION":3,
						"NORMAL":4
					},
					"indices":5
				}
			]
		}
	],
	"accessors":[
		{
			"bufferView":0,
			"componentType":5126,
			"count":4,
			"max":[
				2.7921667098999023,
				13.611572265625,
				-1.456639051437378
			],
			"min":[
				-10.604869842529297,
				-5.785463333129883,
				-1.456639051437378
			],
			"type":"VEC3"
		},
		{
			"bufferView":1,
			"componentType":5126,
			"count":4,
			"type":"VEC3"
		},
		{
			"bufferView":2,
			"componentType":5123,
			"count":6,
			"type":"SCALAR"
		},
		{
			"bufferView":3,
			"componentType":5126,
			"count":260336,
			"max":[
				-2.6593730449676514,
				3.499250888824463,
				-1.4992129802703857
			],
			"min":[
				-4.807558059692383,
				1.3510669469833374,
				-3.4992129802703857
			],
			"type":"VEC3"
		},
		{
			"bufferView":4,
			"componentType":5126,
			"count":260336,
			"type":"VEC3"
		},
		{
			"bufferView":5,
			"componentType":5125,
			"count":264192,
			"type":"SCALAR"
		}
	],
	"bufferViews":[
		{
			"buffer":0,
			"byteLength":48,
			"byteOffset":0,
			"target":34962
		},
		{
			"buffer":0,
			"byteLength":48,
			"byteOffset":48,
			"target":34962
		},
		{
			"buffer":0,
			"byteLength":12,
			"byteOffset":96,
			"target":34963
		},
		{
			"buffer":0,
			"byteLength":3124032,
			"byteOffset":108,
			"target":34962
		},
		{
			"buffer":0,
			"byteLength":3124032,
			"byteOffset":3124140,
			"target":34962
		},
		{
			"buffer":0,
			"byteLength":1056768,
			"byteOffset":6248172,
			"target":34963
		}
	],
	"buffers":[
		{
			"byteLength":7304940,
			"uri":"glass.bin"
		}
	]
}
